<mxfile host="app.diagrams.net" modified="2024-04-04T08:58:22.179Z" agent="Mozilla/5.0 (X11; Linux x86_64) AppleWebKit/537.36 (KHTML, like Gecko) Chrome/120.0.0.0 YaBrowser/24.1.0.0 Safari/537.36" etag="V_RRoHLaVgvJGkv3Npu8" version="24.2.2" type="google">
  <diagram name="Page-1" id="2YBvvXClWsGukQMizWep">
    <mxGraphModel grid="1" page="1" gridSize="10" guides="1" tooltips="1" connect="1" arrows="1" fold="1" pageScale="1" pageWidth="850" pageHeight="1100" math="0" shadow="0">
      <root>
        <mxCell id="0" />
        <mxCell id="1" parent="0" />
        <mxCell id="7VVajDDt1qHXu371A4_M-3" value=":User" style="shape=umlLifeline;perimeter=lifelinePerimeter;whiteSpace=wrap;html=1;container=0;dropTarget=0;collapsible=0;recursiveResize=0;outlineConnect=0;portConstraint=eastwest;newEdgeStyle={&quot;edgeStyle&quot;:&quot;elbowEdgeStyle&quot;,&quot;elbow&quot;:&quot;vertical&quot;,&quot;curved&quot;:0,&quot;rounded&quot;:0};" vertex="1" parent="1">
          <mxGeometry x="150" y="280" width="80" height="400" as="geometry" />
        </mxCell>
        <mxCell id="7VVajDDt1qHXu371A4_M-4" value="" style="html=1;points=[];perimeter=orthogonalPerimeter;outlineConnect=0;targetShapes=umlLifeline;portConstraint=eastwest;newEdgeStyle={&quot;edgeStyle&quot;:&quot;elbowEdgeStyle&quot;,&quot;elbow&quot;:&quot;vertical&quot;,&quot;curved&quot;:0,&quot;rounded&quot;:0};" vertex="1" parent="7VVajDDt1qHXu371A4_M-3">
          <mxGeometry x="35" y="70" width="10" height="280" as="geometry" />
        </mxCell>
        <mxCell id="7VVajDDt1qHXu371A4_M-5" value=":Super CLass" style="shape=umlLifeline;perimeter=lifelinePerimeter;whiteSpace=wrap;html=1;container=0;dropTarget=0;collapsible=0;recursiveResize=0;outlineConnect=0;portConstraint=eastwest;newEdgeStyle={&quot;edgeStyle&quot;:&quot;elbowEdgeStyle&quot;,&quot;elbow&quot;:&quot;vertical&quot;,&quot;curved&quot;:0,&quot;rounded&quot;:0};" vertex="1" parent="1">
          <mxGeometry x="260" y="280" width="80" height="400" as="geometry" />
        </mxCell>
        <mxCell id="7VVajDDt1qHXu371A4_M-6" value="" style="html=1;points=[];perimeter=orthogonalPerimeter;outlineConnect=0;targetShapes=umlLifeline;portConstraint=eastwest;newEdgeStyle={&quot;edgeStyle&quot;:&quot;elbowEdgeStyle&quot;,&quot;elbow&quot;:&quot;vertical&quot;,&quot;curved&quot;:0,&quot;rounded&quot;:0};" vertex="1" parent="7VVajDDt1qHXu371A4_M-5">
          <mxGeometry x="35" y="80" width="10" height="270" as="geometry" />
        </mxCell>
        <mxCell id="7VVajDDt1qHXu371A4_M-7" value="image" style="html=1;verticalAlign=bottom;endArrow=block;edgeStyle=elbowEdgeStyle;elbow=vertical;curved=0;rounded=0;" edge="1" parent="1" source="7VVajDDt1qHXu371A4_M-4" target="7VVajDDt1qHXu371A4_M-6">
          <mxGeometry relative="1" as="geometry">
            <mxPoint x="255" y="370" as="sourcePoint" />
            <Array as="points">
              <mxPoint x="240" y="360" />
            </Array>
          </mxGeometry>
        </mxCell>
        <mxCell id="7VVajDDt1qHXu371A4_M-8" value="return TextList" style="html=1;verticalAlign=bottom;endArrow=open;dashed=1;endSize=8;edgeStyle=elbowEdgeStyle;elbow=vertical;curved=0;rounded=0;" edge="1" parent="1" source="7VVajDDt1qHXu371A4_M-6" target="7VVajDDt1qHXu371A4_M-4">
          <mxGeometry relative="1" as="geometry">
            <mxPoint x="255" y="445" as="targetPoint" />
            <Array as="points">
              <mxPoint x="250" y="630" />
            </Array>
          </mxGeometry>
        </mxCell>
        <mxCell id="7VVajDDt1qHXu371A4_M-9" value=":CLIPWrapper" style="shape=umlLifeline;perimeter=lifelinePerimeter;whiteSpace=wrap;html=1;container=0;dropTarget=0;collapsible=0;recursiveResize=0;outlineConnect=0;portConstraint=eastwest;newEdgeStyle={&quot;edgeStyle&quot;:&quot;elbowEdgeStyle&quot;,&quot;elbow&quot;:&quot;vertical&quot;,&quot;curved&quot;:0,&quot;rounded&quot;:0};" vertex="1" parent="1">
          <mxGeometry x="410" y="280" width="80" height="400" as="geometry" />
        </mxCell>
        <mxCell id="7VVajDDt1qHXu371A4_M-10" value="" style="html=1;points=[];perimeter=orthogonalPerimeter;outlineConnect=0;targetShapes=umlLifeline;portConstraint=eastwest;newEdgeStyle={&quot;edgeStyle&quot;:&quot;elbowEdgeStyle&quot;,&quot;elbow&quot;:&quot;vertical&quot;,&quot;curved&quot;:0,&quot;rounded&quot;:0};" vertex="1" parent="7VVajDDt1qHXu371A4_M-9">
          <mxGeometry x="35" y="100" width="10" height="50" as="geometry" />
        </mxCell>
        <mxCell id="7VVajDDt1qHXu371A4_M-11" value="encode_image(image)" style="html=1;verticalAlign=bottom;endArrow=block;edgeStyle=elbowEdgeStyle;elbow=vertical;curved=0;rounded=0;" edge="1" parent="1" source="7VVajDDt1qHXu371A4_M-5" target="7VVajDDt1qHXu371A4_M-10">
          <mxGeometry relative="1" as="geometry">
            <mxPoint x="320" y="380" as="sourcePoint" />
            <Array as="points">
              <mxPoint x="400" y="380" />
            </Array>
            <mxPoint x="470" y="380" as="targetPoint" />
          </mxGeometry>
        </mxCell>
        <mxCell id="7VVajDDt1qHXu371A4_M-12" value="return image_emb" style="html=1;verticalAlign=bottom;endArrow=open;dashed=1;endSize=8;edgeStyle=elbowEdgeStyle;elbow=vertical;curved=0;rounded=0;" edge="1" parent="1" source="7VVajDDt1qHXu371A4_M-10" target="7VVajDDt1qHXu371A4_M-6">
          <mxGeometry relative="1" as="geometry">
            <mxPoint x="310" y="430" as="targetPoint" />
            <Array as="points">
              <mxPoint x="383" y="430" />
            </Array>
            <mxPoint x="419.5" y="429.87" as="sourcePoint" />
          </mxGeometry>
        </mxCell>
        <mxCell id="7VVajDDt1qHXu371A4_M-13" value="&lt;span style=&quot;font-size: 12px; text-align: left; background-color: rgb(251, 251, 251);&quot;&gt;find_nearest_k(image_emb)&lt;/span&gt;" style="html=1;verticalAlign=bottom;endArrow=block;edgeStyle=elbowEdgeStyle;elbow=vertical;curved=0;rounded=0;" edge="1" parent="1" target="7VVajDDt1qHXu371A4_M-14">
          <mxGeometry relative="1" as="geometry">
            <mxPoint x="302.61333333333334" y="460" as="sourcePoint" />
            <Array as="points">
              <mxPoint x="402.38" y="460" />
            </Array>
            <mxPoint x="537.38" y="460" as="targetPoint" />
          </mxGeometry>
        </mxCell>
        <mxCell id="7VVajDDt1qHXu371A4_M-14" value=":TextIndex" style="shape=umlLifeline;perimeter=lifelinePerimeter;whiteSpace=wrap;html=1;container=0;dropTarget=0;collapsible=0;recursiveResize=0;outlineConnect=0;portConstraint=eastwest;newEdgeStyle={&quot;edgeStyle&quot;:&quot;elbowEdgeStyle&quot;,&quot;elbow&quot;:&quot;vertical&quot;,&quot;curved&quot;:0,&quot;rounded&quot;:0};" vertex="1" parent="1">
          <mxGeometry x="530" y="280" width="80" height="400" as="geometry" />
        </mxCell>
        <mxCell id="7VVajDDt1qHXu371A4_M-15" value="" style="html=1;points=[];perimeter=orthogonalPerimeter;outlineConnect=0;targetShapes=umlLifeline;portConstraint=eastwest;newEdgeStyle={&quot;edgeStyle&quot;:&quot;elbowEdgeStyle&quot;,&quot;elbow&quot;:&quot;vertical&quot;,&quot;curved&quot;:0,&quot;rounded&quot;:0};" vertex="1" parent="7VVajDDt1qHXu371A4_M-14">
          <mxGeometry x="35" y="180" width="10" height="50" as="geometry" />
        </mxCell>
        <mxCell id="7VVajDDt1qHXu371A4_M-16" value="return top_k_indexes" style="html=1;verticalAlign=bottom;endArrow=open;dashed=1;endSize=8;edgeStyle=elbowEdgeStyle;elbow=vertical;curved=0;rounded=0;" edge="1" parent="1" source="7VVajDDt1qHXu371A4_M-14" target="7VVajDDt1qHXu371A4_M-5">
          <mxGeometry relative="1" as="geometry">
            <mxPoint x="420" y="504.8399999999999" as="targetPoint" />
            <Array as="points">
              <mxPoint x="480" y="510" />
            </Array>
            <mxPoint x="510" y="500" as="sourcePoint" />
          </mxGeometry>
        </mxCell>
        <mxCell id="7VVajDDt1qHXu371A4_M-17" value=":TextDF" style="shape=umlLifeline;perimeter=lifelinePerimeter;whiteSpace=wrap;html=1;container=0;dropTarget=0;collapsible=0;recursiveResize=0;outlineConnect=0;portConstraint=eastwest;newEdgeStyle={&quot;edgeStyle&quot;:&quot;elbowEdgeStyle&quot;,&quot;elbow&quot;:&quot;vertical&quot;,&quot;curved&quot;:0,&quot;rounded&quot;:0};" vertex="1" parent="1">
          <mxGeometry x="650" y="280" width="80" height="400" as="geometry" />
        </mxCell>
        <mxCell id="7VVajDDt1qHXu371A4_M-18" value="" style="html=1;points=[];perimeter=orthogonalPerimeter;outlineConnect=0;targetShapes=umlLifeline;portConstraint=eastwest;newEdgeStyle={&quot;edgeStyle&quot;:&quot;elbowEdgeStyle&quot;,&quot;elbow&quot;:&quot;vertical&quot;,&quot;curved&quot;:0,&quot;rounded&quot;:0};" vertex="1" parent="7VVajDDt1qHXu371A4_M-17">
          <mxGeometry x="35" y="270" width="10" height="50" as="geometry" />
        </mxCell>
        <mxCell id="7VVajDDt1qHXu371A4_M-19" value="&lt;span style=&quot;font-size: 12px; text-align: left; background-color: rgb(251, 251, 251);&quot;&gt;find_nearest_k(&lt;/span&gt;top_k_indexes&lt;span style=&quot;font-size: 12px; text-align: left; background-color: rgb(251, 251, 251);&quot;&gt;)&lt;/span&gt;" style="html=1;verticalAlign=bottom;endArrow=block;edgeStyle=elbowEdgeStyle;elbow=vertical;curved=0;rounded=0;" edge="1" parent="1" source="7VVajDDt1qHXu371A4_M-5" target="7VVajDDt1qHXu371A4_M-18">
          <mxGeometry relative="1" as="geometry">
            <mxPoint x="320.00333333333333" y="550" as="sourcePoint" />
            <Array as="points">
              <mxPoint x="419.77" y="550" />
            </Array>
            <mxPoint x="554.77" y="550" as="targetPoint" />
          </mxGeometry>
        </mxCell>
        <mxCell id="7VVajDDt1qHXu371A4_M-20" value="return TextList" style="html=1;verticalAlign=bottom;endArrow=open;dashed=1;endSize=8;edgeStyle=elbowEdgeStyle;elbow=vertical;curved=0;rounded=0;" edge="1" parent="1" source="7VVajDDt1qHXu371A4_M-18" target="7VVajDDt1qHXu371A4_M-5">
          <mxGeometry relative="1" as="geometry">
            <mxPoint x="400" y="600.16" as="targetPoint" />
            <Array as="points">
              <mxPoint x="575" y="600" />
            </Array>
            <mxPoint x="640" y="600.16" as="sourcePoint" />
          </mxGeometry>
        </mxCell>
      </root>
    </mxGraphModel>
  </diagram>
</mxfile>
